<svg xmlns="http://www.w3.org/2000/svg" width="512" height="512" viewBox="0 0 512 512">
  <defs>
    <clipPath id="roundedClip">
      <rect x="56" y="56" width="400" height="400" rx="62"/>
    </clipPath>
  </defs>

  <!-- Background with macOS-standard padding and rounded corners -->
  <rect x="56" y="56" width="400" height="400" rx="62" fill="#001122"/>

  <!-- Pixelated sine wave with Bayer dithering -->
  <g clip-path="url(#roundedClip)">
    <rect x="56" y="56" width="12" height="12" fill="#ff0088"/>
    <rect x="68" y="56" width="12" height="12" fill="#ff0088"/>
    <rect x="80" y="56" width="12" height="12" fill="#ff0088"/>
    <rect x="92" y="56" width="12" height="12" fill="#ff0088"/>
    <rect x="104" y="56" width="12" height="12" fill="#ff0088"/>
    <rect x="116" y="56" width="12" height="12" fill="#ff0088"/>
    <rect x="128" y="56" width="12" height="12" fill="#ff0088"/>
    <rect x="140" y="56" width="12" height="12" fill="#ff0088"/>
    <rect x="152" y="56" width="12" height="12" fill="#ff0088"/>
    <rect x="164" y="56" width="12" height="12" fill="#ff0088"/>
    <rect x="176" y="56" width="12" height="12" fill="#ff0088"/>
    <rect x="188" y="56" width="12" height="12" fill="#ff0088"/>
    <rect x="200" y="56" width="12" height="12" fill="#ff0088"/>
    <rect x="212" y="56" width="12" height="12" fill="#ff0088"/>
    <rect x="224" y="56" width="12" height="12" fill="#ff0088"/>
    <rect x="236" y="56" width="12" height="12" fill="#ff0088"/>
    <rect x="248" y="56" width="12" height="12" fill="#ff0088"/>
    <rect x="260" y="56" width="12" height="12" fill="#ff0088"/>
    <rect x="272" y="56" width="12" height="12" fill="#ff0088"/>
    <rect x="284" y="56" width="12" height="12" fill="#ff0088"/>
    <rect x="296" y="56" width="12" height="12" fill="#ff0088"/>
    <rect x="308" y="56" width="12" height="12" fill="#ff0088"/>
    <rect x="320" y="56" width="12" height="12" fill="#ff0088"/>
    <rect x="332" y="56" width="12" height="12" fill="#ff0088"/>
    <rect x="344" y="56" width="12" height="12" fill="#ff0088"/>
    <rect x="356" y="56" width="12" height="12" fill="#ff0088"/>
    <rect x="368" y="56" width="12" height="12" fill="#ff0088"/>
    <rect x="380" y="56" width="12" height="12" fill="#ff0088"/>
    <rect x="392" y="56" width="12" height="12" fill="#ff0088"/>
    <rect x="404" y="56" width="12" height="12" fill="#ff0088"/>
    <rect x="416" y="56" width="12" height="12" fill="#ff0088"/>
    <rect x="428" y="56" width="12" height="12" fill="#ff0088"/>
    <rect x="440" y="56" width="12" height="12" fill="#ff0088"/>
    <rect x="56" y="68" width="12" height="12" fill="#ff0088"/>
    <rect x="68" y="68" width="12" height="12" fill="#ff0088"/>
    <rect x="80" y="68" width="12" height="12" fill="#ff0088"/>
    <rect x="92" y="68" width="12" height="12" fill="#ff0088"/>
    <rect x="104" y="68" width="12" height="12" fill="#ff0088"/>
    <rect x="116" y="68" width="12" height="12" fill="#ff0088"/>
    <rect x="128" y="68" width="12" height="12" fill="#ff0088"/>
    <rect x="140" y="68" width="12" height="12" fill="#ff0088"/>
    <rect x="152" y="68" width="12" height="12" fill="#ff0088"/>
    <rect x="164" y="68" width="12" height="12" fill="#ff0088"/>
    <rect x="176" y="68" width="12" height="12" fill="#ff0088"/>
    <rect x="188" y="68" width="12" height="12" fill="#ff0088"/>
    <rect x="200" y="68" width="12" height="12" fill="#ff0088"/>
    <rect x="212" y="68" width="12" height="12" fill="#ff0088"/>
    <rect x="224" y="68" width="12" height="12" fill="#ff0088"/>
    <rect x="236" y="68" width="12" height="12" fill="#ff0088"/>
    <rect x="248" y="68" width="12" height="12" fill="#ff0088"/>
    <rect x="260" y="68" width="12" height="12" fill="#ff0088"/>
    <rect x="272" y="68" width="12" height="12" fill="#ff0088"/>
    <rect x="284" y="68" width="12" height="12" fill="#ff0088"/>
    <rect x="296" y="68" width="12" height="12" fill="#ff0088"/>
    <rect x="308" y="68" width="12" height="12" fill="#ff0088"/>
    <rect x="320" y="68" width="12" height="12" fill="#ff0088"/>
    <rect x="332" y="68" width="12" height="12" fill="#ff0088"/>
    <rect x="344" y="68" width="12" height="12" fill="#ff0088"/>
    <rect x="356" y="68" width="12" height="12" fill="#ff0088"/>
    <rect x="368" y="68" width="12" height="12" fill="#ff0088"/>
    <rect x="380" y="68" width="12" height="12" fill="#ff0088"/>
    <rect x="392" y="68" width="12" height="12" fill="#ff0088"/>
    <rect x="404" y="68" width="12" height="12" fill="#ff0088"/>
    <rect x="416" y="68" width="12" height="12" fill="#ff0088"/>
    <rect x="428" y="68" width="12" height="12" fill="#ff0088"/>
    <rect x="440" y="68" width="12" height="12" fill="#ff0088"/>
    <rect x="56" y="80" width="12" height="12" fill="#ff0088"/>
    <rect x="68" y="80" width="12" height="12" fill="#ff0088"/>
    <rect x="80" y="80" width="12" height="12" fill="#ff0088"/>
    <rect x="92" y="80" width="12" height="12" fill="#ff0088"/>
    <rect x="104" y="80" width="12" height="12" fill="#ff0088"/>
    <rect x="116" y="80" width="12" height="12" fill="#ff0088"/>
    <rect x="128" y="80" width="12" height="12" fill="#ff0088"/>
    <rect x="140" y="80" width="12" height="12" fill="#ff0088"/>
    <rect x="152" y="80" width="12" height="12" fill="#ff0088"/>
    <rect x="164" y="80" width="12" height="12" fill="#ff0088"/>
    <rect x="176" y="80" width="12" height="12" fill="#ff0088"/>
    <rect x="188" y="80" width="12" height="12" fill="#ff0088"/>
    <rect x="200" y="80" width="12" height="12" fill="#ff0088"/>
    <rect x="212" y="80" width="12" height="12" fill="#ff0088"/>
    <rect x="224" y="80" width="12" height="12" fill="#ff0088"/>
    <rect x="236" y="80" width="12" height="12" fill="#ff0088"/>
    <rect x="248" y="80" width="12" height="12" fill="#ff0088"/>
    <rect x="260" y="80" width="12" height="12" fill="#ff0088"/>
    <rect x="272" y="80" width="12" height="12" fill="#ff0088"/>
    <rect x="284" y="80" width="12" height="12" fill="#ff0088"/>
    <rect x="296" y="80" width="12" height="12" fill="#ff0088"/>
    <rect x="308" y="80" width="12" height="12" fill="#ff0088"/>
    <rect x="320" y="80" width="12" height="12" fill="#ff0088"/>
    <rect x="332" y="80" width="12" height="12" fill="#ff0088"/>
    <rect x="344" y="80" width="12" height="12" fill="#ff0088"/>
    <rect x="356" y="80" width="12" height="12" fill="#ff0088"/>
    <rect x="368" y="80" width="12" height="12" fill="#ff0088"/>
    <rect x="380" y="80" width="12" height="12" fill="#ff0088"/>
    <rect x="392" y="80" width="12" height="12" fill="#ff0088"/>
    <rect x="404" y="80" width="12" height="12" fill="#ff0088"/>
    <rect x="416" y="80" width="12" height="12" fill="#ff0088"/>
    <rect x="428" y="80" width="12" height="12" fill="#ff0088"/>
    <rect x="440" y="80" width="12" height="12" fill="#ff0088"/>
    <rect x="56" y="92" width="12" height="12" fill="#ff0088"/>
    <rect x="68" y="92" width="12" height="12" fill="#ff0088"/>
    <rect x="80" y="92" width="12" height="12" fill="#ff0088"/>
    <rect x="92" y="92" width="12" height="12" fill="#ff0088"/>
    <rect x="104" y="92" width="12" height="12" fill="#ff0088"/>
    <rect x="116" y="92" width="12" height="12" fill="#ff0088"/>
    <rect x="128" y="92" width="12" height="12" fill="#ff0088"/>
    <rect x="140" y="92" width="12" height="12" fill="#ff0088"/>
    <rect x="152" y="92" width="12" height="12" fill="#ff0088"/>
    <rect x="164" y="92" width="12" height="12" fill="#ff0088"/>
    <rect x="176" y="92" width="12" height="12" fill="#ff0088"/>
    <rect x="188" y="92" width="12" height="12" fill="#ff0088"/>
    <rect x="200" y="92" width="12" height="12" fill="#ff0088"/>
    <rect x="212" y="92" width="12" height="12" fill="#ff0088"/>
    <rect x="224" y="92" width="12" height="12" fill="#ff0088"/>
    <rect x="236" y="92" width="12" height="12" fill="#ff0088"/>
    <rect x="248" y="92" width="12" height="12" fill="#ff0088"/>
    <rect x="260" y="92" width="12" height="12" fill="#ff0088"/>
    <rect x="272" y="92" width="12" height="12" fill="#ff0088"/>
    <rect x="284" y="92" width="12" height="12" fill="#ff0088"/>
    <rect x="296" y="92" width="12" height="12" fill="#ff0088"/>
    <rect x="308" y="92" width="12" height="12" fill="#ff0088"/>
    <rect x="320" y="92" width="12" height="12" fill="#ff0088"/>
    <rect x="332" y="92" width="12" height="12" fill="#ff0088"/>
    <rect x="344" y="92" width="12" height="12" fill="#ff0088"/>
    <rect x="356" y="92" width="12" height="12" fill="#ff0088"/>
    <rect x="368" y="92" width="12" height="12" fill="#ff0088"/>
    <rect x="380" y="92" width="12" height="12" fill="#ff0088"/>
    <rect x="392" y="92" width="12" height="12" fill="#ff0088"/>
    <rect x="404" y="92" width="12" height="12" fill="#ff0088"/>
    <rect x="416" y="92" width="12" height="12" fill="#ff0088"/>
    <rect x="428" y="92" width="12" height="12" fill="#ff0088"/>
    <rect x="440" y="92" width="12" height="12" fill="#ff0088"/>
    <rect x="56" y="104" width="12" height="12" fill="#ff0088"/>
    <rect x="68" y="104" width="12" height="12" fill="#ff0088"/>
    <rect x="80" y="104" width="12" height="12" fill="#ff0088"/>
    <rect x="92" y="104" width="12" height="12" fill="#ff0088"/>
    <rect x="104" y="104" width="12" height="12" fill="#ff0088"/>
    <rect x="116" y="104" width="12" height="12" fill="#ff0088"/>
    <rect x="128" y="104" width="12" height="12" fill="#ff0088"/>
    <rect x="140" y="104" width="12" height="12" fill="#ff0088"/>
    <rect x="152" y="104" width="12" height="12" fill="#ff0088"/>
    <rect x="164" y="104" width="12" height="12" fill="#ff0088"/>
    <rect x="176" y="104" width="12" height="12" fill="#ff0088"/>
    <rect x="188" y="104" width="12" height="12" fill="#ff0088"/>
    <rect x="200" y="104" width="12" height="12" fill="#ff0088"/>
    <rect x="212" y="104" width="12" height="12" fill="#ff0088"/>
    <rect x="224" y="104" width="12" height="12" fill="#ff0088"/>
    <rect x="236" y="104" width="12" height="12" fill="#ff0088"/>
    <rect x="248" y="104" width="12" height="12" fill="#ff0088"/>
    <rect x="260" y="104" width="12" height="12" fill="#ff0088"/>
    <rect x="272" y="104" width="12" height="12" fill="#ff0088"/>
    <rect x="284" y="104" width="12" height="12" fill="#ff0088"/>
    <rect x="296" y="104" width="12" height="12" fill="#ff0088"/>
    <rect x="308" y="104" width="12" height="12" fill="#ff0088"/>
    <rect x="320" y="104" width="12" height="12" fill="#ff0088"/>
    <rect x="332" y="104" width="12" height="12" fill="#ff0088"/>
    <rect x="344" y="104" width="12" height="12" fill="#ff0088"/>
    <rect x="356" y="104" width="12" height="12" fill="#ff0088"/>
    <rect x="368" y="104" width="12" height="12" fill="#ff0088"/>
    <rect x="380" y="104" width="12" height="12" fill="#ff0088"/>
    <rect x="392" y="104" width="12" height="12" fill="#ff0088"/>
    <rect x="404" y="104" width="12" height="12" fill="#ff0088"/>
    <rect x="416" y="104" width="12" height="12" fill="#ff0088"/>
    <rect x="428" y="104" width="12" height="12" fill="#ff0088"/>
    <rect x="440" y="104" width="12" height="12" fill="#ff0088"/>
    <rect x="56" y="116" width="12" height="12" fill="#ff0088"/>
    <rect x="68" y="116" width="12" height="12" fill="#ff0088"/>
    <rect x="80" y="116" width="12" height="12" fill="#ff0088"/>
    <rect x="92" y="116" width="12" height="12" fill="#ff0088"/>
    <rect x="104" y="116" width="12" height="12" fill="#ff0088"/>
    <rect x="116" y="116" width="12" height="12" fill="#ff0088"/>
    <rect x="128" y="116" width="12" height="12" fill="#ff0088"/>
    <rect x="140" y="116" width="12" height="12" fill="#ff0088"/>
    <rect x="152" y="116" width="12" height="12" fill="#ff0088"/>
    <rect x="164" y="116" width="12" height="12" fill="#ff0088"/>
    <rect x="176" y="116" width="12" height="12" fill="#ff0088"/>
    <rect x="188" y="116" width="12" height="12" fill="#ff0088"/>
    <rect x="200" y="116" width="12" height="12" fill="#ff0088"/>
    <rect x="212" y="116" width="12" height="12" fill="#ff0088"/>
    <rect x="224" y="116" width="12" height="12" fill="#ff0088"/>
    <rect x="236" y="116" width="12" height="12" fill="#ff0088"/>
    <rect x="248" y="116" width="12" height="12" fill="#ff0088"/>
    <rect x="260" y="116" width="12" height="12" fill="#ff0088"/>
    <rect x="272" y="116" width="12" height="12" fill="#ff0088"/>
    <rect x="284" y="116" width="12" height="12" fill="#ff0088"/>
    <rect x="296" y="116" width="12" height="12" fill="#ff0088"/>
    <rect x="308" y="116" width="12" height="12" fill="#ff0088"/>
    <rect x="320" y="116" width="12" height="12" fill="#ff0088"/>
    <rect x="332" y="116" width="12" height="12" fill="#ff0088"/>
    <rect x="344" y="116" width="12" height="12" fill="#ff0088"/>
    <rect x="356" y="116" width="12" height="12" fill="#ff0088"/>
    <rect x="368" y="116" width="12" height="12" fill="#ff0088"/>
    <rect x="380" y="116" width="12" height="12" fill="#ff0088"/>
    <rect x="392" y="116" width="12" height="12" fill="#ff0088"/>
    <rect x="404" y="116" width="12" height="12" fill="#ff0088"/>
    <rect x="416" y="116" width="12" height="12" fill="#ff0088"/>
    <rect x="428" y="116" width="12" height="12" fill="#ff0088"/>
    <rect x="440" y="116" width="12" height="12" fill="#ff0088"/>
    <rect x="56" y="128" width="12" height="12" fill="#ff0088"/>
    <rect x="68" y="128" width="12" height="12" fill="#ff0088"/>
    <rect x="80" y="128" width="12" height="12" fill="#ff0088"/>
    <rect x="92" y="128" width="12" height="12" fill="#ff0088"/>
    <rect x="104" y="128" width="12" height="12" fill="#ff0088"/>
    <rect x="116" y="128" width="12" height="12" fill="#ff0088"/>
    <rect x="128" y="128" width="12" height="12" fill="#ff0088"/>
    <rect x="140" y="128" width="12" height="12" fill="#ff0088"/>
    <rect x="152" y="128" width="12" height="12" fill="#ff0088"/>
    <rect x="164" y="128" width="12" height="12" fill="#ff0088"/>
    <rect x="176" y="128" width="12" height="12" fill="#ff0088"/>
    <rect x="188" y="128" width="12" height="12" fill="#ff0088"/>
    <rect x="200" y="128" width="12" height="12" fill="#ff0088"/>
    <rect x="212" y="128" width="12" height="12" fill="#ff0088"/>
    <rect x="224" y="128" width="12" height="12" fill="#ff0088"/>
    <rect x="236" y="128" width="12" height="12" fill="#ff0088"/>
    <rect x="248" y="128" width="12" height="12" fill="#ff0088"/>
    <rect x="260" y="128" width="12" height="12" fill="#ff0088"/>
    <rect x="272" y="128" width="12" height="12" fill="#ff0088"/>
    <rect x="284" y="128" width="12" height="12" fill="#ff0088"/>
    <rect x="296" y="128" width="12" height="12" fill="#ff0088"/>
    <rect x="308" y="128" width="12" height="12" fill="#ff0088"/>
    <rect x="320" y="128" width="12" height="12" fill="#ff0088"/>
    <rect x="332" y="128" width="12" height="12" fill="#ff0088"/>
    <rect x="344" y="128" width="12" height="12" fill="#ff0088"/>
    <rect x="356" y="128" width="12" height="12" fill="#ff0088"/>
    <rect x="368" y="128" width="12" height="12" fill="#ff0088"/>
    <rect x="380" y="128" width="12" height="12" fill="#ff0088"/>
    <rect x="392" y="128" width="12" height="12" fill="#ff0088"/>
    <rect x="404" y="128" width="12" height="12" fill="#ff0088"/>
    <rect x="416" y="128" width="12" height="12" fill="#ff0088"/>
    <rect x="428" y="128" width="12" height="12" fill="#ff0088"/>
    <rect x="440" y="128" width="12" height="12" fill="#ff0088"/>
    <rect x="56" y="140" width="12" height="12" fill="#ff0088"/>
    <rect x="68" y="140" width="12" height="12" fill="#ff0088"/>
    <rect x="80" y="140" width="12" height="12" fill="#ff0088"/>
    <rect x="92" y="140" width="12" height="12" fill="#ff0088"/>
    <rect x="104" y="140" width="12" height="12" fill="#ff0088"/>
    <rect x="116" y="140" width="12" height="12" fill="#ff0088"/>
    <rect x="128" y="140" width="12" height="12" fill="#ff0088"/>
    <rect x="140" y="140" width="12" height="12" fill="#ff0088"/>
    <rect x="152" y="140" width="12" height="12" fill="#ff0088"/>
    <rect x="164" y="140" width="12" height="12" fill="#ff0088"/>
    <rect x="176" y="140" width="12" height="12" fill="#ff0088"/>
    <rect x="188" y="140" width="12" height="12" fill="#ff0088"/>
    <rect x="200" y="140" width="12" height="12" fill="#ff0088"/>
    <rect x="212" y="140" width="12" height="12" fill="#ff0088"/>
    <rect x="224" y="140" width="12" height="12" fill="#ff0088"/>
    <rect x="236" y="140" width="12" height="12" fill="#ff0088"/>
    <rect x="248" y="140" width="12" height="12" fill="#ff0088"/>
    <rect x="260" y="140" width="12" height="12" fill="#ff0088"/>
    <rect x="272" y="140" width="12" height="12" fill="#ff0088"/>
    <rect x="284" y="140" width="12" height="12" fill="#ff0088"/>
    <rect x="296" y="140" width="12" height="12" fill="#ff0088"/>
    <rect x="308" y="140" width="12" height="12" fill="#ff0088"/>
    <rect x="320" y="140" width="12" height="12" fill="#ff0088"/>
    <rect x="332" y="140" width="12" height="12" fill="#ff0088"/>
    <rect x="344" y="140" width="12" height="12" fill="#ff0088"/>
    <rect x="356" y="140" width="12" height="12" fill="#ff0088"/>
    <rect x="368" y="140" width="12" height="12" fill="#ff0088"/>
    <rect x="380" y="140" width="12" height="12" fill="#ff0088"/>
    <rect x="392" y="140" width="12" height="12" fill="#ff0088"/>
    <rect x="404" y="140" width="12" height="12" fill="#ff0088"/>
    <rect x="416" y="140" width="12" height="12" fill="#ff0088"/>
    <rect x="428" y="140" width="12" height="12" fill="#ff0088"/>
    <rect x="440" y="140" width="12" height="12" fill="#ff0088"/>
    <rect x="56" y="152" width="12" height="12" fill="#ff0088"/>
    <rect x="68" y="152" width="12" height="12" fill="#ff0088"/>
    <rect x="80" y="152" width="12" height="12" fill="#ff0088"/>
    <rect x="92" y="152" width="12" height="12" fill="#ff0088"/>
    <rect x="104" y="152" width="12" height="12" fill="#ff0088"/>
    <rect x="116" y="152" width="12" height="12" fill="#ff0088"/>
    <rect x="128" y="152" width="12" height="12" fill="#ff0088"/>
    <rect x="140" y="152" width="12" height="12" fill="#ff0088"/>
    <rect x="152" y="152" width="12" height="12" fill="#ff0088"/>
    <rect x="164" y="152" width="12" height="12" fill="#ff0088"/>
    <rect x="176" y="152" width="12" height="12" fill="#ff0088"/>
    <rect x="188" y="152" width="12" height="12" fill="#ff0088"/>
    <rect x="200" y="152" width="12" height="12" fill="#ff0088"/>
    <rect x="212" y="152" width="12" height="12" fill="#ff0088"/>
    <rect x="224" y="152" width="12" height="12" fill="#ff0088"/>
    <rect x="236" y="152" width="12" height="12" fill="#ff0088"/>
    <rect x="248" y="152" width="12" height="12" fill="#ff0088"/>
    <rect x="260" y="152" width="12" height="12" fill="#ff0088"/>
    <rect x="272" y="152" width="12" height="12" fill="#ff0088"/>
    <rect x="284" y="152" width="12" height="12" fill="#ff0088"/>
    <rect x="296" y="152" width="12" height="12" fill="#ff0088"/>
    <rect x="308" y="152" width="12" height="12" fill="#ff0088"/>
    <rect x="332" y="152" width="12" height="12" fill="#ff0088"/>
    <rect x="356" y="152" width="12" height="12" fill="#ff0088"/>
    <rect x="380" y="152" width="12" height="12" fill="#ff0088"/>
    <rect x="404" y="152" width="12" height="12" fill="#ff0088"/>
    <rect x="416" y="152" width="12" height="12" fill="#ff0088"/>
    <rect x="428" y="152" width="12" height="12" fill="#ff0088"/>
    <rect x="440" y="152" width="12" height="12" fill="#ff0088"/>
    <rect x="56" y="164" width="12" height="12" fill="#ff0088"/>
    <rect x="68" y="164" width="12" height="12" fill="#ff0088"/>
    <rect x="80" y="164" width="12" height="12" fill="#ff0088"/>
    <rect x="92" y="164" width="12" height="12" fill="#ff0088"/>
    <rect x="104" y="164" width="12" height="12" fill="#ff0088"/>
    <rect x="116" y="164" width="12" height="12" fill="#ff0088"/>
    <rect x="128" y="164" width="12" height="12" fill="#ff0088"/>
    <rect x="140" y="164" width="12" height="12" fill="#ff0088"/>
    <rect x="152" y="164" width="12" height="12" fill="#ff0088"/>
    <rect x="164" y="164" width="12" height="12" fill="#ff0088"/>
    <rect x="176" y="164" width="12" height="12" fill="#ff0088"/>
    <rect x="188" y="164" width="12" height="12" fill="#ff0088"/>
    <rect x="200" y="164" width="12" height="12" fill="#ff0088"/>
    <rect x="212" y="164" width="12" height="12" fill="#ff0088"/>
    <rect x="224" y="164" width="12" height="12" fill="#ff0088"/>
    <rect x="236" y="164" width="12" height="12" fill="#ff0088"/>
    <rect x="248" y="164" width="12" height="12" fill="#ff0088"/>
    <rect x="260" y="164" width="12" height="12" fill="#ff0088"/>
    <rect x="272" y="164" width="12" height="12" fill="#ff0088"/>
    <rect x="284" y="164" width="12" height="12" fill="#ff0088"/>
    <rect x="296" y="164" width="12" height="12" fill="#ff0088"/>
    <rect x="308" y="164" width="12" height="12" fill="#ff0088"/>
    <rect x="320" y="164" width="12" height="12" fill="#ff0088"/>
    <rect x="332" y="164" width="12" height="12" fill="#ff0088"/>
    <rect x="344" y="164" width="12" height="12" fill="#ff0088"/>
    <rect x="368" y="164" width="12" height="12" fill="#ff0088"/>
    <rect x="380" y="164" width="12" height="12" fill="#ff0088"/>
    <rect x="392" y="164" width="12" height="12" fill="#ff0088"/>
    <rect x="404" y="164" width="12" height="12" fill="#ff0088"/>
    <rect x="416" y="164" width="12" height="12" fill="#ff0088"/>
    <rect x="428" y="164" width="12" height="12" fill="#ff0088"/>
    <rect x="440" y="164" width="12" height="12" fill="#ff0088"/>
    <rect x="56" y="176" width="12" height="12" fill="#ff0088"/>
    <rect x="68" y="176" width="12" height="12" fill="#ff0088"/>
    <rect x="80" y="176" width="12" height="12" fill="#ff0088"/>
    <rect x="92" y="176" width="12" height="12" fill="#ff0088"/>
    <rect x="104" y="176" width="12" height="12" fill="#ff0088"/>
    <rect x="116" y="176" width="12" height="12" fill="#ff0088"/>
    <rect x="128" y="176" width="12" height="12" fill="#ff0088"/>
    <rect x="140" y="176" width="12" height="12" fill="#ff0088"/>
    <rect x="152" y="176" width="12" height="12" fill="#ff0088"/>
    <rect x="164" y="176" width="12" height="12" fill="#ff0088"/>
    <rect x="176" y="176" width="12" height="12" fill="#ff0088"/>
    <rect x="188" y="176" width="12" height="12" fill="#ff0088"/>
    <rect x="200" y="176" width="12" height="12" fill="#ff0088"/>
    <rect x="212" y="176" width="12" height="12" fill="#ff0088"/>
    <rect x="224" y="176" width="12" height="12" fill="#ff0088"/>
    <rect x="236" y="176" width="12" height="12" fill="#ff0088"/>
    <rect x="248" y="176" width="12" height="12" fill="#ff0088"/>
    <rect x="260" y="176" width="12" height="12" fill="#ff0088"/>
    <rect x="272" y="176" width="12" height="12" fill="#ff0088"/>
    <rect x="284" y="176" width="12" height="12" fill="#ff0088"/>
    <rect x="308" y="176" width="12" height="12" fill="#ff0088"/>
    <rect x="332" y="176" width="12" height="12" fill="#ff0088"/>
    <rect x="356" y="176" width="12" height="12" fill="#ff0088"/>
    <rect x="380" y="176" width="12" height="12" fill="#ff0088"/>
    <rect x="404" y="176" width="12" height="12" fill="#ff0088"/>
    <rect x="416" y="176" width="12" height="12" fill="#ff0088"/>
    <rect x="428" y="176" width="12" height="12" fill="#ff0088"/>
    <rect x="440" y="176" width="12" height="12" fill="#ff0088"/>
    <rect x="56" y="188" width="12" height="12" fill="#ff0088"/>
    <rect x="68" y="188" width="12" height="12" fill="#ff0088"/>
    <rect x="80" y="188" width="12" height="12" fill="#ff0088"/>
    <rect x="92" y="188" width="12" height="12" fill="#ff0088"/>
    <rect x="104" y="188" width="12" height="12" fill="#ff0088"/>
    <rect x="116" y="188" width="12" height="12" fill="#ff0088"/>
    <rect x="128" y="188" width="12" height="12" fill="#ff0088"/>
    <rect x="140" y="188" width="12" height="12" fill="#ff0088"/>
    <rect x="152" y="188" width="12" height="12" fill="#ff0088"/>
    <rect x="164" y="188" width="12" height="12" fill="#ff0088"/>
    <rect x="176" y="188" width="12" height="12" fill="#ff0088"/>
    <rect x="188" y="188" width="12" height="12" fill="#ff0088"/>
    <rect x="200" y="188" width="12" height="12" fill="#ff0088"/>
    <rect x="212" y="188" width="12" height="12" fill="#ff0088"/>
    <rect x="224" y="188" width="12" height="12" fill="#ff0088"/>
    <rect x="236" y="188" width="12" height="12" fill="#ff0088"/>
    <rect x="248" y="188" width="12" height="12" fill="#ff0088"/>
    <rect x="260" y="188" width="12" height="12" fill="#ff0088"/>
    <rect x="272" y="188" width="12" height="12" fill="#ff0088"/>
    <rect x="284" y="188" width="12" height="12" fill="#ff0088"/>
    <rect x="296" y="188" width="12" height="12" fill="#ff0088"/>
    <rect x="320" y="188" width="12" height="12" fill="#ff0088"/>
    <rect x="344" y="188" width="12" height="12" fill="#ff0088"/>
    <rect x="368" y="188" width="12" height="12" fill="#ff0088"/>
    <rect x="392" y="188" width="12" height="12" fill="#ff0088"/>
    <rect x="404" y="188" width="12" height="12" fill="#ff0088"/>
    <rect x="416" y="188" width="12" height="12" fill="#ff0088"/>
    <rect x="428" y="188" width="12" height="12" fill="#ff0088"/>
    <rect x="440" y="188" width="12" height="12" fill="#ff0088"/>
    <rect x="56" y="200" width="12" height="12" fill="#ff0088"/>
    <rect x="68" y="200" width="12" height="12" fill="#ff0088"/>
    <rect x="80" y="200" width="12" height="12" fill="#ff0088"/>
    <rect x="92" y="200" width="12" height="12" fill="#ff0088"/>
    <rect x="104" y="200" width="12" height="12" fill="#ff0088"/>
    <rect x="116" y="200" width="12" height="12" fill="#ff0088"/>
    <rect x="128" y="200" width="12" height="12" fill="#ff0088"/>
    <rect x="140" y="200" width="12" height="12" fill="#ff0088"/>
    <rect x="152" y="200" width="12" height="12" fill="#ff0088"/>
    <rect x="164" y="200" width="12" height="12" fill="#ff0088"/>
    <rect x="176" y="200" width="12" height="12" fill="#ff0088"/>
    <rect x="188" y="200" width="12" height="12" fill="#ff0088"/>
    <rect x="200" y="200" width="12" height="12" fill="#ff0088"/>
    <rect x="212" y="200" width="12" height="12" fill="#ff0088"/>
    <rect x="224" y="200" width="12" height="12" fill="#ff0088"/>
    <rect x="236" y="200" width="12" height="12" fill="#ff0088"/>
    <rect x="248" y="200" width="12" height="12" fill="#ff0088"/>
    <rect x="260" y="200" width="12" height="12" fill="#ff0088"/>
    <rect x="284" y="200" width="12" height="12" fill="#ff0088"/>
    <rect x="428" y="200" width="12" height="12" fill="#ff0088"/>
    <rect x="440" y="200" width="12" height="12" fill="#ff0088"/>
    <rect x="56" y="212" width="12" height="12" fill="#ff0088"/>
    <rect x="68" y="212" width="12" height="12" fill="#ff0088"/>
    <rect x="80" y="212" width="12" height="12" fill="#ff0088"/>
    <rect x="92" y="212" width="12" height="12" fill="#ff0088"/>
    <rect x="104" y="212" width="12" height="12" fill="#ff0088"/>
    <rect x="116" y="212" width="12" height="12" fill="#ff0088"/>
    <rect x="128" y="212" width="12" height="12" fill="#ff0088"/>
    <rect x="140" y="212" width="12" height="12" fill="#ff0088"/>
    <rect x="152" y="212" width="12" height="12" fill="#ff0088"/>
    <rect x="164" y="212" width="12" height="12" fill="#ff0088"/>
    <rect x="176" y="212" width="12" height="12" fill="#ff0088"/>
    <rect x="188" y="212" width="12" height="12" fill="#ff0088"/>
    <rect x="200" y="212" width="12" height="12" fill="#ff0088"/>
    <rect x="212" y="212" width="12" height="12" fill="#ff0088"/>
    <rect x="224" y="212" width="12" height="12" fill="#ff0088"/>
    <rect x="236" y="212" width="12" height="12" fill="#ff0088"/>
    <rect x="248" y="212" width="12" height="12" fill="#ff0088"/>
    <rect x="260" y="212" width="12" height="12" fill="#ff0088"/>
    <rect x="272" y="212" width="12" height="12" fill="#ff0088"/>
    <rect x="296" y="212" width="12" height="12" fill="#ff0088"/>
    <rect x="416" y="212" width="12" height="12" fill="#ff0088"/>
    <rect x="428" y="212" width="12" height="12" fill="#ff0088"/>
    <rect x="440" y="212" width="12" height="12" fill="#ff0088"/>
    <rect x="56" y="224" width="12" height="12" fill="#ff0088"/>
    <rect x="68" y="224" width="12" height="12" fill="#ff0088"/>
    <rect x="80" y="224" width="12" height="12" fill="#ff0088"/>
    <rect x="92" y="224" width="12" height="12" fill="#ff0088"/>
    <rect x="104" y="224" width="12" height="12" fill="#ff0088"/>
    <rect x="116" y="224" width="12" height="12" fill="#ff0088"/>
    <rect x="128" y="224" width="12" height="12" fill="#ff0088"/>
    <rect x="140" y="224" width="12" height="12" fill="#ff0088"/>
    <rect x="152" y="224" width="12" height="12" fill="#ff0088"/>
    <rect x="164" y="224" width="12" height="12" fill="#ff0088"/>
    <rect x="176" y="224" width="12" height="12" fill="#ff0088"/>
    <rect x="188" y="224" width="12" height="12" fill="#ff0088"/>
    <rect x="200" y="224" width="12" height="12" fill="#ff0088"/>
    <rect x="212" y="224" width="12" height="12" fill="#ff0088"/>
    <rect x="224" y="224" width="12" height="12" fill="#ff0088"/>
    <rect x="236" y="224" width="12" height="12" fill="#ff0088"/>
    <rect x="248" y="224" width="12" height="12" fill="#ff0088"/>
    <rect x="260" y="224" width="12" height="12" fill="#ff0088"/>
    <rect x="428" y="224" width="12" height="12" fill="#ff0088"/>
    <rect x="56" y="236" width="12" height="12" fill="#ff0088"/>
    <rect x="68" y="236" width="12" height="12" fill="#ff0088"/>
    <rect x="80" y="236" width="12" height="12" fill="#ff0088"/>
    <rect x="92" y="236" width="12" height="12" fill="#ff0088"/>
    <rect x="104" y="236" width="12" height="12" fill="#ff0088"/>
    <rect x="116" y="236" width="12" height="12" fill="#ff0088"/>
    <rect x="128" y="236" width="12" height="12" fill="#ff0088"/>
    <rect x="140" y="236" width="12" height="12" fill="#ff0088"/>
    <rect x="152" y="236" width="12" height="12" fill="#ff0088"/>
    <rect x="164" y="236" width="12" height="12" fill="#ff0088"/>
    <rect x="176" y="236" width="12" height="12" fill="#ff0088"/>
    <rect x="188" y="236" width="12" height="12" fill="#ff0088"/>
    <rect x="200" y="236" width="12" height="12" fill="#ff0088"/>
    <rect x="212" y="236" width="12" height="12" fill="#ff0088"/>
    <rect x="224" y="236" width="12" height="12" fill="#ff0088"/>
    <rect x="236" y="236" width="12" height="12" fill="#ff0088"/>
    <rect x="248" y="236" width="12" height="12" fill="#ff0088"/>
    <rect x="272" y="236" width="12" height="12" fill="#ff0088"/>
    <rect x="440" y="236" width="12" height="12" fill="#ff0088"/>
    <rect x="68" y="248" width="12" height="12" fill="#ff0088"/>
    <rect x="80" y="248" width="12" height="12" fill="#ff0088"/>
    <rect x="92" y="248" width="12" height="12" fill="#ff0088"/>
    <rect x="104" y="248" width="12" height="12" fill="#ff0088"/>
    <rect x="116" y="248" width="12" height="12" fill="#ff0088"/>
    <rect x="128" y="248" width="12" height="12" fill="#ff0088"/>
    <rect x="140" y="248" width="12" height="12" fill="#ff0088"/>
    <rect x="152" y="248" width="12" height="12" fill="#ff0088"/>
    <rect x="164" y="248" width="12" height="12" fill="#ff0088"/>
    <rect x="176" y="248" width="12" height="12" fill="#ff0088"/>
    <rect x="188" y="248" width="12" height="12" fill="#ff0088"/>
    <rect x="200" y="248" width="12" height="12" fill="#ff0088"/>
    <rect x="212" y="248" width="12" height="12" fill="#ff0088"/>
    <rect x="224" y="248" width="12" height="12" fill="#ff0088"/>
    <rect x="236" y="248" width="12" height="12" fill="#ff0088"/>
    <rect x="56" y="260" width="12" height="12" fill="#ff0088"/>
    <rect x="80" y="260" width="12" height="12" fill="#ff0088"/>
    <rect x="92" y="260" width="12" height="12" fill="#ff0088"/>
    <rect x="104" y="260" width="12" height="12" fill="#ff0088"/>
    <rect x="116" y="260" width="12" height="12" fill="#ff0088"/>
    <rect x="128" y="260" width="12" height="12" fill="#ff0088"/>
    <rect x="140" y="260" width="12" height="12" fill="#ff0088"/>
    <rect x="152" y="260" width="12" height="12" fill="#ff0088"/>
    <rect x="164" y="260" width="12" height="12" fill="#ff0088"/>
    <rect x="176" y="260" width="12" height="12" fill="#ff0088"/>
    <rect x="188" y="260" width="12" height="12" fill="#ff0088"/>
    <rect x="200" y="260" width="12" height="12" fill="#ff0088"/>
    <rect x="212" y="260" width="12" height="12" fill="#ff0088"/>
    <rect x="224" y="260" width="12" height="12" fill="#ff0088"/>
    <rect x="248" y="260" width="12" height="12" fill="#ff0088"/>
    <rect x="68" y="272" width="12" height="12" fill="#ff0088"/>
    <rect x="92" y="272" width="12" height="12" fill="#ff0088"/>
    <rect x="104" y="272" width="12" height="12" fill="#ff0088"/>
    <rect x="116" y="272" width="12" height="12" fill="#ff0088"/>
    <rect x="128" y="272" width="12" height="12" fill="#ff0088"/>
    <rect x="140" y="272" width="12" height="12" fill="#ff0088"/>
    <rect x="152" y="272" width="12" height="12" fill="#ff0088"/>
    <rect x="164" y="272" width="12" height="12" fill="#ff0088"/>
    <rect x="176" y="272" width="12" height="12" fill="#ff0088"/>
    <rect x="188" y="272" width="12" height="12" fill="#ff0088"/>
    <rect x="200" y="272" width="12" height="12" fill="#ff0088"/>
    <rect x="212" y="272" width="12" height="12" fill="#ff0088"/>
    <rect x="56" y="284" width="12" height="12" fill="#ff0088"/>
    <rect x="80" y="284" width="12" height="12" fill="#ff0088"/>
    <rect x="92" y="284" width="12" height="12" fill="#ff0088"/>
    <rect x="104" y="284" width="12" height="12" fill="#ff0088"/>
    <rect x="116" y="284" width="12" height="12" fill="#ff0088"/>
    <rect x="128" y="284" width="12" height="12" fill="#ff0088"/>
    <rect x="140" y="284" width="12" height="12" fill="#ff0088"/>
    <rect x="152" y="284" width="12" height="12" fill="#ff0088"/>
    <rect x="164" y="284" width="12" height="12" fill="#ff0088"/>
    <rect x="176" y="284" width="12" height="12" fill="#ff0088"/>
    <rect x="188" y="284" width="12" height="12" fill="#ff0088"/>
    <rect x="200" y="284" width="12" height="12" fill="#ff0088"/>
    <rect x="212" y="284" width="12" height="12" fill="#ff0088"/>
    <rect x="224" y="284" width="12" height="12" fill="#ff0088"/>
    <rect x="248" y="284" width="12" height="12" fill="#ff0088"/>
    <rect x="92" y="296" width="12" height="12" fill="#ff0088"/>
    <rect x="116" y="296" width="12" height="12" fill="#ff0088"/>
    <rect x="128" y="296" width="12" height="12" fill="#ff0088"/>
    <rect x="140" y="296" width="12" height="12" fill="#ff0088"/>
    <rect x="164" y="296" width="12" height="12" fill="#ff0088"/>
    <rect x="176" y="296" width="12" height="12" fill="#ff0088"/>
    <rect x="188" y="296" width="12" height="12" fill="#ff0088"/>
    <rect x="80" y="308" width="12" height="12" fill="#ff0088"/>
    <rect x="104" y="308" width="12" height="12" fill="#ff0088"/>
    <rect x="128" y="308" width="12" height="12" fill="#ff0088"/>
    <rect x="140" y="308" width="12" height="12" fill="#ff0088"/>
    <rect x="152" y="308" width="12" height="12" fill="#ff0088"/>
    <rect x="164" y="308" width="12" height="12" fill="#ff0088"/>
    <rect x="176" y="308" width="12" height="12" fill="#ff0088"/>
    <rect x="200" y="308" width="12" height="12" fill="#ff0088"/>
    <rect x="224" y="308" width="12" height="12" fill="#ff0088"/>
    <rect x="116" y="320" width="12" height="12" fill="#ff0088"/>
    <rect x="140" y="320" width="12" height="12" fill="#ff0088"/>
    <rect x="164" y="320" width="12" height="12" fill="#ff0088"/>
    <rect x="188" y="320" width="12" height="12" fill="#ff0088"/>
    <rect x="104" y="332" width="12" height="12" fill="#ff0088"/>
    <rect x="128" y="332" width="12" height="12" fill="#ff0088"/>
    <rect x="152" y="332" width="12" height="12" fill="#ff0088"/>
    <rect x="176" y="332" width="12" height="12" fill="#ff0088"/>
    <rect x="200" y="332" width="12" height="12" fill="#ff0088"/>
  </g>
</svg>